<?xml version="1.0" standalone="no"?>
<!DOCTYPE svg PUBLIC "-//W3C//DTD SVG 20010904//EN"
 "http://www.w3.org/TR/2001/REC-SVG-20010904/DTD/svg10.dtd">
<svg version="1.0" xmlns="http://www.w3.org/2000/svg"
 width="476.000000pt" height="1360.000000pt" viewBox="0 0 476.000000 1360.000000"
 preserveAspectRatio="xMidYMid meet">

<g transform="translate(0.000000,1360.000000) scale(0.100000,-0.100000)"
fill="#000000" stroke="none">
<path d="M1780 13555 c0 -12 -15 -15 -75 -15 l-75 0 0 -40 c0 -29 4 -40 15
-40 8 0 15 -4 15 -10 0 -5 7 -10 15 -10 8 0 15 -7 15 -15 0 -8 7 -15 15 -15 8
0 15 -7 15 -15 0 -8 7 -15 15 -15 8 0 15 -4 15 -10 0 -5 7 -10 15 -10 8 0 15
5 15 10 0 6 11 10 25 10 24 0 25 3 25 55 l0 55 45 0 45 0 0 -65 c0 -51 -3 -65
-15 -65 -8 0 -15 -7 -15 -15 0 -8 -7 -15 -15 -15 -8 0 -15 -4 -15 -10 0 -5
-13 -10 -30 -10 -20 0 -30 -5 -30 -15 0 -11 -11 -15 -40 -15 -29 0 -40 4 -40
15 0 10 -10 15 -30 15 -16 0 -30 5 -30 10 0 6 -7 10 -15 10 -8 0 -15 7 -15 15
0 8 -4 15 -10 15 -5 0 -10 11 -10 25 0 16 -6 25 -15 25 -8 0 -15 7 -15 15 0 8
-7 15 -15 15 -9 0 -15 9 -15 25 0 16 -6 25 -15 25 -8 0 -15 5 -15 10 0 6 -7
10 -15 10 -8 0 -15 7 -15 15 0 8 -7 15 -15 15 -8 0 -15 -7 -15 -15 0 -13 -36
-15 -265 -15 -170 0 -265 -4 -265 -10 0 -6 -55 -10 -145 -10 -122 0 -145 -2
-145 -15 0 -9 -9 -15 -25 -15 -14 0 -25 -4 -25 -10 0 -6 -30 -10 -70 -10 -56
0 -70 -3 -70 -15 0 -11 -12 -15 -45 -15 -33 0 -45 -4 -45 -15 0 -10 -10 -15
-30 -15 l-30 0 0 -75 c0 -60 3 -75 15 -75 9 0 15 -9 15 -25 0 -16 6 -25 15
-25 10 0 15 -10 15 -30 0 -20 5 -30 15 -30 11 0 15 -12 15 -50 0 -38 4 -50 15
-50 8 0 15 -7 15 -15 0 -8 7 -15 15 -15 9 0 15 -9 15 -25 0 -22 4 -25 40 -25
29 0 40 4 40 15 0 11 12 15 45 15 25 0 45 5 45 10 0 6 25 10 55 10 42 0 55 3
55 15 0 12 14 15 70 15 56 0 70 3 70 15 0 8 7 15 15 15 8 0 15 5 15 10 0 6 7
10 15 10 8 0 15 7 15 15 0 9 9 15 25 15 16 0 25 -6 25 -15 0 -11 12 -15 45
-15 25 0 45 -4 45 -10 0 -5 7 -10 15 -10 8 0 15 5 15 10 0 6 11 10 25 10 20 0
25 5 25 25 0 14 -4 25 -10 25 -5 0 -10 14 -10 30 0 20 -5 30 -15 30 -11 0 -15
12 -15 50 0 47 2 50 25 50 20 0 25 -5 25 -25 0 -16 6 -25 15 -25 11 0 15 -11
15 -40 0 -29 4 -40 15 -40 9 0 15 -9 15 -25 0 -16 6 -25 15 -25 8 0 15 -7 15
-15 0 -12 13 -15 55 -15 52 0 55 1 55 25 0 16 -6 25 -15 25 -8 0 -15 7 -15 15
0 8 -7 15 -15 15 -9 0 -15 9 -15 25 0 14 -4 25 -10 25 -5 0 -10 7 -10 15 0 8
-7 15 -15 15 -11 0 -15 12 -15 50 0 38 -4 50 -15 50 -8 0 -15 7 -15 15 0 8 7
15 15 15 9 0 15 9 15 25 0 16 6 25 15 25 8 0 15 7 15 15 0 9 9 15 25 15 14 0
25 5 25 10 0 6 27 10 60 10 33 0 60 -4 60 -10 0 -5 11 -10 25 -10 16 0 25 -6
25 -15 0 -8 7 -15 15 -15 9 0 15 -9 15 -25 0 -16 6 -25 15 -25 9 0 15 -9 15
-25 0 -16 -6 -25 -15 -25 -8 0 -15 -7 -15 -15 0 -8 -7 -15 -15 -15 -8 0 -15
-7 -15 -15 0 -9 -9 -15 -25 -15 -14 0 -25 -4 -25 -10 0 -5 -7 -10 -15 -10 -11
0 -15 -11 -15 -40 0 -29 4 -40 15 -40 8 0 15 -7 15 -15 0 -11 11 -15 40 -15
29 0 40 4 40 15 0 8 7 15 15 15 11 0 15 11 15 40 0 29 4 40 15 40 8 0 15 5 15
10 0 15 19 12 36 -4 16 -16 19 -86 4 -86 -5 0 -10 -11 -10 -25 l0 -25 705 0
c620 0 705 -2 705 -15 0 -13 35 -15 255 -15 163 0 255 -4 255 -10 0 -6 50 -10
130 -10 109 0 130 -2 130 -15 0 -12 16 -15 85 -15 69 0 85 -3 85 -15 0 -12 13
-15 55 -15 30 0 55 -4 55 -10 0 -5 18 -10 40 -10 29 0 40 -4 40 -15 0 -10 10
-15 30 -15 17 0 30 -4 30 -10 0 -5 7 -10 15 -10 8 0 15 5 15 10 0 6 7 10 15
10 8 0 15 7 15 15 0 8 7 15 15 15 11 0 15 12 15 50 0 28 5 50 10 50 6 0 10 11
10 25 0 16 6 25 15 25 12 0 15 13 15 55 0 42 3 55 15 55 12 0 15 17 15 90 l0
90 -40 0 c-29 0 -40 4 -40 15 0 11 -12 15 -45 15 -25 0 -45 5 -45 10 0 6 -18
10 -40 10 -29 0 -40 4 -40 15 0 13 -24 15 -160 15 -100 0 -160 4 -160 10 0 6
-67 10 -180 10 -153 0 -180 2 -180 15 0 13 -26 15 -170 15 -144 0 -170 2 -170
15 0 13 -59 15 -470 15 -411 0 -470 -2 -470 -15 0 -9 -9 -15 -25 -15 -16 0
-25 -6 -25 -15 0 -11 -12 -15 -45 -15 -33 0 -45 4 -45 15 0 8 -7 15 -15 15 -8
0 -15 7 -15 15 0 12 -19 15 -110 15 -91 0 -110 -3 -110 -15z"/>
<path d="M1350 13370 c0 -5 -7 -10 -15 -10 -12 0 -15 -13 -15 -55 0 -54 0 -55
30 -55 20 0 30 5 30 15 0 8 7 15 15 15 8 0 15 7 15 15 0 8 7 15 15 15 9 0 15
9 15 25 0 16 -6 25 -15 25 -8 0 -15 5 -15 10 0 6 -13 10 -30 10 -16 0 -30 -4
-30 -10z"/>
<path d="M4440 13370 c0 -5 7 -10 15 -10 8 0 15 5 15 10 0 6 -7 10 -15 10 -8
0 -15 -4 -15 -10z"/>
<path d="M4470 13320 c0 -5 5 -10 10 -10 6 0 10 5 10 10 0 6 -4 10 -10 10 -5
0 -10 -4 -10 -10z"/>
<path d="M4520 13265 c0 -8 -7 -15 -15 -15 -8 0 -15 -4 -15 -10 0 -5 7 -10 15
-10 9 0 15 -9 15 -25 0 -16 6 -25 15 -25 11 0 15 -11 15 -40 0 -29 -4 -40 -15
-40 -12 0 -15 -13 -15 -55 0 -42 -3 -55 -15 -55 -10 0 -15 -11 -15 -35 0 -19
-4 -35 -10 -35 -5 0 -10 -7 -10 -15 0 -8 5 -15 10 -15 6 0 10 -18 10 -40 0
-22 -4 -40 -10 -40 -5 0 -10 -16 -10 -35 0 -24 -5 -35 -15 -35 -10 0 -15 -10
-15 -30 0 -20 -5 -30 -15 -30 -13 0 -15 -83 -15 -685 0 -602 2 -685 15 -685
13 0 15 -27 15 -185 0 -158 2 -185 15 -185 9 0 15 -9 15 -25 0 -14 5 -25 10
-25 6 0 10 7 10 15 0 11 12 15 45 15 41 0 45 -2 45 -25 0 -16 -6 -25 -15 -25
-13 0 -15 -43 -15 -325 l0 -325 -30 0 c-20 0 -30 -5 -30 -15 0 -12 -13 -15
-55 -15 -30 0 -55 -4 -55 -10 0 -5 -7 -10 -15 -10 -8 0 -15 -7 -15 -15 0 -11
-11 -15 -40 -15 -29 0 -40 -4 -40 -15 0 -13 -26 -15 -170 -15 l-170 0 0 30 c0
20 -5 30 -15 30 -8 0 -15 5 -15 10 0 6 -7 10 -15 10 -8 0 -15 7 -15 15 0 13
-147 15 -1260 15 -1113 0 -1260 -2 -1260 -15 0 -13 -37 -15 -270 -15 l-270 0
0 -40 0 -40 -140 0 c-87 0 -140 -4 -140 -10 0 -5 -18 -10 -40 -10 -22 0 -40 5
-40 10 0 6 -13 10 -30 10 -16 0 -30 -4 -30 -10 0 -5 -7 -10 -15 -10 -12 0 -15
-16 -15 -80 0 -64 3 -80 15 -80 8 0 15 -4 15 -10 0 -6 133 -10 380 -10 l380 0
0 100 0 100 45 0 45 0 0 -90 c0 -73 3 -90 15 -90 8 0 15 -4 15 -10 0 -7 360
-10 1060 -10 l1060 0 0 75 c0 60 3 75 15 75 8 0 15 7 15 15 0 9 9 15 25 15 20
0 25 -5 25 -25 0 -16 6 -25 15 -25 11 0 15 -11 15 -40 0 -29 -4 -40 -15 -40
-8 0 -15 -7 -15 -15 0 -8 7 -15 15 -15 8 0 15 -4 15 -10 0 -7 153 -10 440 -10
287 0 440 3 440 10 0 6 68 10 185 10 l185 0 0 65 c0 51 -3 65 -15 65 -8 0 -15
7 -15 15 0 8 7 15 15 15 8 0 15 5 15 10 0 6 -7 10 -15 10 -8 0 -15 7 -15 15 0
8 7 15 15 15 13 0 15 51 15 400 0 349 -2 400 -15 400 -8 0 -15 7 -15 15 0 8 7
15 15 15 12 0 15 19 15 115 0 96 -3 115 -15 115 -8 0 -15 -4 -15 -10 0 -5 -7
-10 -15 -10 -11 0 -15 -11 -15 -40 0 -29 -4 -40 -15 -40 -9 0 -15 -9 -15 -25
0 -14 -4 -25 -10 -25 -6 0 -10 37 -10 90 0 73 -3 90 -15 90 -13 0 -15 76 -15
625 l0 625 25 0 c16 0 25 -6 25 -15 0 -8 7 -15 15 -15 8 0 15 -7 15 -15 0 -8
7 -15 15 -15 9 0 15 -9 15 -25 0 -18 5 -25 20 -25 18 0 20 7 20 74 0 83 -6
106 -26 106 -10 0 -14 15 -14 55 0 52 -1 55 -26 55 -26 0 -54 20 -54 39 0 6
-7 11 -15 11 -12 0 -15 17 -15 90 0 73 -3 90 -15 90 -13 0 -15 24 -15 155 0
131 -2 155 -15 155 -11 0 -15 11 -15 40 0 29 -4 40 -15 40 -8 0 -15 -7 -15
-15z m-110 -3265 c0 -29 -4 -40 -15 -40 -11 0 -15 11 -15 40 0 29 4 40 15 40
11 0 15 -11 15 -40z"/>
<path d="M110 12826 c0 -42 4 -66 13 -70 10 -5 10 -7 0 -12 -7 -3 -13 -19 -13
-35 0 -19 -5 -29 -15 -29 -8 0 -15 -4 -15 -10 0 -5 -7 -10 -15 -10 -9 0 -15
-9 -15 -25 0 -16 -6 -25 -15 -25 -8 0 -15 -7 -15 -15 0 -8 -4 -15 -10 -15 -6
0 -10 -37 -10 -90 0 -53 4 -90 10 -90 6 0 10 5 10 10 0 6 7 10 15 10 10 0 15
10 15 30 0 27 3 30 30 30 20 0 30 -5 30 -15 0 -8 5 -15 10 -15 6 0 10 -11 10
-25 0 -14 -4 -25 -10 -25 -6 0 -10 -28 -10 -65 0 -37 4 -65 10 -65 6 0 10 -11
10 -25 0 -21 5 -25 30 -25 20 0 30 -5 30 -15 0 -8 7 -15 15 -15 8 0 15 -7 15
-15 0 -10 10 -15 30 -15 27 0 30 3 30 30 0 20 -5 30 -15 30 -10 0 -15 11 -15
35 0 24 -5 35 -15 35 -12 0 -15 14 -15 65 0 51 3 65 15 65 11 0 15 11 15 40 0
29 4 40 15 40 12 0 15 14 15 65 0 51 -3 65 -15 65 -11 0 -15 11 -15 40 0 29
-4 40 -15 40 -11 0 -15 11 -15 40 0 29 -4 40 -15 40 -9 0 -15 9 -15 25 0 16
-6 25 -15 25 -9 0 -15 9 -15 25 0 20 -5 25 -25 25 -24 0 -25 -2 -25 -64z"/>
<path d="M130 11965 l0 -65 30 0 c20 0 30 5 30 15 0 8 7 15 15 15 8 0 15 7 15
15 0 8 7 15 15 15 10 0 15 11 15 35 l0 35 -60 0 -60 0 0 -65z"/>
<path d="M130 11805 c0 -14 -4 -25 -10 -25 -6 0 -10 -33 -10 -80 0 -47 4 -80
10 -80 6 0 10 -7 10 -15 0 -8 -4 -15 -10 -15 -5 0 -10 -11 -10 -25 0 -14 5
-25 10 -25 6 0 10 -80 10 -220 0 -140 -4 -220 -10 -220 -6 0 -10 -33 -10 -80
l0 -80 70 0 70 0 0 145 c0 122 2 145 15 145 13 0 15 40 15 300 l0 300 -75 0
c-73 0 -75 -1 -75 -25z"/>
<path d="M130 9230 c0 -180 2 -210 15 -210 10 0 15 10 15 30 0 20 5 30 15 30
8 0 15 5 15 10 0 6 7 10 15 10 8 0 15 -4 15 -10 0 -6 45 -10 115 -10 96 0 115
-3 115 -15 0 -8 5 -15 10 -15 6 0 10 -7 10 -15 0 -8 7 -15 15 -15 11 0 15 11
15 40 0 29 4 40 15 40 9 0 15 9 15 25 0 16 6 25 15 25 9 0 15 -9 15 -25 0 -21
5 -25 30 -25 28 0 30 -2 30 -40 0 -22 5 -40 10 -40 6 0 10 33 10 80 l0 80 45
0 45 0 0 -40 c0 -29 4 -40 15 -40 9 0 15 9 15 25 0 16 6 25 15 25 9 0 15 10
15 26 0 26 20 54 39 54 6 0 11 -11 11 -25 0 -16 6 -25 15 -25 9 0 15 -9 15
-25 0 -16 6 -25 15 -25 9 0 15 9 15 25 0 16 6 25 15 25 11 0 15 11 15 40 0 22
5 40 11 40 24 0 39 30 39 79 0 48 -2 51 -25 51 -14 0 -25 5 -25 10 0 6 -50 10
-130 10 -109 0 -130 2 -130 15 0 13 -37 15 -270 15 l-270 0 0 -210z"/>
<path d="M4380 9425 c0 -13 -26 -15 -170 -15 -107 0 -170 -4 -170 -10 0 -5
-18 -10 -40 -10 -22 0 -40 -5 -40 -11 0 -14 25 -39 39 -39 6 0 11 -7 11 -15 0
-8 7 -15 15 -15 9 0 15 -9 15 -25 0 -16 -6 -25 -15 -25 -8 0 -15 -7 -15 -15 0
-8 -7 -15 -15 -15 -8 0 -15 -4 -15 -10 0 -5 7 -10 15 -10 10 0 15 -10 15 -30
0 -20 5 -30 15 -30 12 0 15 13 15 55 l0 55 45 0 45 0 0 -80 c0 -47 4 -80 10
-80 6 0 10 11 10 25 0 16 6 25 15 25 8 0 15 7 15 15 0 8 7 15 15 15 9 0 15 9
15 25 0 16 6 25 15 25 11 0 15 -11 15 -40 0 -29 4 -40 15 -40 10 0 15 -11 15
-35 0 -24 5 -35 15 -35 11 0 15 12 15 50 0 28 5 50 10 50 6 0 10 7 10 15 0 8
7 15 15 15 8 0 15 5 15 10 0 6 7 10 15 10 8 0 15 -4 15 -10 0 -5 7 -10 15 -10
8 0 15 -7 15 -15 0 -12 16 -15 85 -15 l85 0 0 90 c0 73 3 90 15 90 9 0 15 9
15 25 0 16 -6 25 -15 25 -8 0 -15 7 -15 15 0 12 -18 15 -100 15 -82 0 -100 -3
-100 -15z m110 -140 c0 -14 -4 -25 -10 -25 -5 0 -10 -7 -10 -15 0 -11 -12 -15
-45 -15 -33 0 -45 4 -45 15 0 11 12 15 45 15 41 0 45 2 45 25 0 14 5 25 10 25
6 0 10 -11 10 -25z"/>
<path d="M1010 9375 c0 -8 7 -15 15 -15 8 0 15 -4 15 -10 0 -5 7 -10 15 -10 9
0 15 9 15 25 0 21 -5 25 -30 25 -20 0 -30 -5 -30 -15z"/>
<path d="M980 9205 c0 -42 3 -55 15 -55 8 0 15 7 15 15 0 8 7 15 15 15 9 0 15
9 15 25 0 16 -6 25 -15 25 -8 0 -15 7 -15 15 0 8 -7 15 -15 15 -12 0 -15 -13
-15 -55z"/>
<path d="M1150 9205 c0 -16 6 -25 15 -25 9 0 15 9 15 25 0 16 -6 25 -15 25 -9
0 -15 -9 -15 -25z"/>
<path d="M1290 9205 c0 -16 6 -25 15 -25 9 0 15 9 15 25 0 16 -6 25 -15 25 -9
0 -15 -9 -15 -25z"/>
<path d="M2090 9205 c0 -16 6 -25 15 -25 9 0 15 9 15 25 0 16 -6 25 -15 25 -9
0 -15 -9 -15 -25z"/>
<path d="M2650 9205 c0 -16 6 -25 15 -25 9 0 15 9 15 25 0 16 -6 25 -15 25 -9
0 -15 -9 -15 -25z"/>
<path d="M3590 9205 c0 -16 6 -25 15 -25 9 0 15 9 15 25 0 16 -6 25 -15 25 -9
0 -15 -9 -15 -25z"/>
<path d="M3870 9190 c0 -29 4 -40 15 -40 11 0 15 11 15 40 0 29 -4 40 -15 40
-11 0 -15 -11 -15 -40z"/>
<path d="M1550 9195 c0 -8 7 -15 15 -15 8 0 15 7 15 15 0 8 -7 15 -15 15 -8 0
-15 -7 -15 -15z"/>
<path d="M2770 9195 c0 -8 7 -15 15 -15 8 0 15 7 15 15 0 8 -7 15 -15 15 -8 0
-15 -7 -15 -15z"/>
<path d="M470 1095 c0 -8 -4 -15 -10 -15 -5 0 -10 -11 -10 -25 0 -16 -6 -25
-15 -25 -12 0 -15 -15 -15 -75 l0 -75 55 0 c30 0 55 5 55 10 0 6 20 10 45 10
25 0 45 -4 45 -10 0 -5 5 -10 10 -10 6 0 10 45 10 115 0 70 -4 115 -10 115 -5
0 -10 -11 -10 -25 0 -16 -6 -25 -15 -25 -9 0 -15 -9 -15 -25 0 -16 -6 -25 -15
-25 -8 0 -15 -7 -15 -15 0 -8 -7 -15 -15 -15 -11 0 -15 11 -15 40 0 29 -4 40
-15 40 -9 0 -15 9 -15 25 0 16 -6 25 -15 25 -8 0 -15 -7 -15 -15z"/>
<path d="M4270 1020 c0 -29 -4 -40 -15 -40 -9 0 -15 -9 -15 -25 0 -16 6 -25
15 -25 8 0 15 -7 15 -15 0 -8 7 -15 15 -15 8 0 15 6 15 14 0 8 6 17 13 20 10
5 10 7 0 12 -8 3 -13 26 -13 60 0 41 -4 54 -15 54 -11 0 -15 -11 -15 -40z"/>
<path d="M730 990 c0 -38 -2 -40 -30 -40 -16 0 -30 -4 -30 -10 0 -6 30 -10 70
-10 40 0 70 4 70 10 0 6 -11 10 -25 10 -22 0 -25 4 -25 40 0 29 -4 40 -15 40
-11 0 -15 -11 -15 -40z"/>
<path d="M870 990 c0 -29 -4 -40 -15 -40 -8 0 -15 -4 -15 -10 0 -5 20 -10 45
-10 25 0 45 5 45 10 0 6 -7 10 -15 10 -11 0 -15 11 -15 40 0 29 -4 40 -15 40
-11 0 -15 -11 -15 -40z"/>
<path d="M4130 970 l0 -40 40 0 c22 0 40 5 40 10 0 6 -7 10 -15 10 -8 0 -15 7
-15 15 0 8 -7 15 -15 15 -8 0 -15 7 -15 15 0 8 -4 15 -10 15 -5 0 -10 -18 -10
-40z"/>
<path d="M980 940 c0 -5 14 -10 30 -10 17 0 30 5 30 10 0 6 -13 10 -30 10 -16
0 -30 -4 -30 -10z"/>
<path d="M1150 940 c0 -5 7 -10 15 -10 8 0 15 5 15 10 0 6 -7 10 -15 10 -8 0
-15 -4 -15 -10z"/>
<path d="M1290 940 c0 -5 7 -10 15 -10 8 0 15 5 15 10 0 6 -7 10 -15 10 -8 0
-15 -4 -15 -10z"/>
<path d="M1550 940 c0 -5 7 -10 15 -10 8 0 15 5 15 10 0 6 -7 10 -15 10 -8 0
-15 -4 -15 -10z"/>
<path d="M2090 940 c0 -5 7 -10 15 -10 8 0 15 5 15 10 0 6 -7 10 -15 10 -8 0
-15 -4 -15 -10z"/>
<path d="M2650 940 c0 -5 7 -10 15 -10 8 0 15 5 15 10 0 6 -7 10 -15 10 -8 0
-15 -4 -15 -10z"/>
<path d="M2770 940 c0 -5 7 -10 15 -10 8 0 15 5 15 10 0 6 -7 10 -15 10 -8 0
-15 -4 -15 -10z"/>
<path d="M3020 940 c0 -5 7 -10 15 -10 8 0 15 5 15 10 0 6 -7 10 -15 10 -8 0
-15 -4 -15 -10z"/>
<path d="M3330 940 c0 -5 7 -10 15 -10 8 0 15 5 15 10 0 6 -7 10 -15 10 -8 0
-15 -4 -15 -10z"/>
<path d="M3590 940 c0 -5 7 -10 15 -10 8 0 15 5 15 10 0 6 -7 10 -15 10 -8 0
-15 -4 -15 -10z"/>
<path d="M3870 940 c0 -5 7 -10 15 -10 8 0 15 5 15 10 0 6 -7 10 -15 10 -8 0
-15 -4 -15 -10z"/>
<path d="M4010 940 c0 -5 7 -10 15 -10 8 0 15 5 15 10 0 6 -7 10 -15 10 -8 0
-15 -4 -15 -10z"/>
<path d="M130 810 c0 -5 7 -10 15 -10 8 0 15 5 15 10 0 6 -7 10 -15 10 -8 0
-15 -4 -15 -10z"/>
<path d="M130 540 c0 -136 2 -160 15 -160 11 0 15 11 15 40 0 29 4 40 15 40 9
0 15 9 15 25 0 16 6 25 15 25 11 0 15 11 15 40 0 29 -4 40 -15 40 -11 0 -15
11 -15 40 0 29 -4 40 -15 40 -8 0 -15 7 -15 15 0 8 -7 15 -15 15 -13 0 -15
-24 -15 -160z"/>
<path d="M220 645 c0 -16 6 -25 15 -25 9 0 15 9 15 25 0 16 -6 25 -15 25 -9 0
-15 -9 -15 -25z"/>
</g>
</svg>
